<?xml version="1.0" standalone="no"?>
<!DOCTYPE svg PUBLIC "-//W3C//DTD SVG 20010904//EN"
 "http://www.w3.org/TR/2001/REC-SVG-20010904/DTD/svg10.dtd">
<svg version="1.0" xmlns="http://www.w3.org/2000/svg"
 width="900pt" height="450pt" viewBox="0 0 850.000000 419.000000"
 preserveAspectRatio="xMidYMid meet">

<g transform="translate(0.000000,419.000000) scale(0.100000,-0.100000)"
fill="#000000" stroke="none">
<path d="M6125 3758 c-71 -71 -85 -104 -85 -208 0 -83 37 -165 106 -236 60
-61 111 -86 188 -92 52 -4 63 -9 97 -43 59 -59 72 -92 77 -196 4 -81 2 -97
-21 -146 -27 -60 -87 -126 -138 -152 -48 -25 -124 -29 -221 -11 -102 19 -275
82 -373 136 -72 40 -167 73 -390 136 -116 32 -240 75 -515 176 -155 57 -261
117 -415 231 -149 111 -278 153 -445 144 -163 -9 -472 -116 -970 -337 -251
-111 -686 -280 -721 -280 -10 0 -53 -18 -95 -40 -85 -44 -106 -47 -209 -25
-103 22 -170 59 -248 138 -82 83 -102 84 -95 4 5 -64 48 -161 91 -204 73 -76
-54 -13 -139 68 -33 33 -69 59 -79 59 -16 0 -17 -7 -13 -58 14 -151 158 -304
348 -369 l65 -22 -2 -37 c-2 -20 -11 -49 -20 -64 -70 -110 -77 -125 -81 -182
-3 -42 2 -77 18 -129 30 -93 24 -190 -19 -308 -17 -47 -31 -95 -31 -108 0 -43
30 -98 88 -156 69 -71 94 -85 166 -93 47 -6 61 -3 98 19 53 31 100 89 116 143
18 63 47 91 135 136 45 22 102 58 127 79 57 48 116 69 195 69 62 0 170 -27
230 -57 37 -19 227 -156 244 -177 15 -17 3 -39 -71 -129 -59 -72 -93 -130
-107 -184 -16 -60 -79 -138 -249 -308 -132 -132 -152 -156 -162 -197 -14 -54
-36 -73 -106 -88 -71 -16 -140 -57 -204 -123 -61 -61 -140 -171 -140 -194 0
-11 43 -13 242 -11 l242 3 19 60 c10 33 19 81 20 106 l2 47 43 5 c56 6 71 21
145 145 101 170 211 288 312 336 28 14 66 37 86 53 20 16 55 37 77 47 40 18
41 18 65 0 33 -26 132 -139 214 -244 94 -120 138 -153 215 -158 56 -4 61 -7
101 -54 54 -63 118 -102 227 -139 102 -34 130 -36 129 -11 0 9 -22 100 -48
202 l-47 185 -45 8 c-55 10 -132 1 -173 -20 -20 -10 -31 -12 -34 -5 -2 6 -13
26 -25 44 -24 35 -58 61 -182 141 -116 75 -173 161 -131 197 38 31 277 75 490
91 83 6 171 15 196 20 89 20 359 61 615 94 61 8 131 17 156 21 l47 6 16 -55
c44 -152 -7 -236 -204 -335 -115 -58 -152 -88 -181 -143 -14 -29 -26 -38 -56
-44 -54 -10 -84 -28 -130 -77 -80 -88 -122 -191 -123 -300 0 -41 3 -48 19 -48
27 0 264 94 335 133 65 35 81 64 71 123 -5 29 -3 31 19 27 38 -8 76 20 151
109 89 105 141 140 268 179 122 38 162 71 196 164 12 33 28 79 37 102 8 23 37
73 65 112 57 82 64 84 175 50 99 -30 317 -154 431 -245 52 -43 141 -160 183
-244 33 -64 107 -270 117 -322 4 -23 -1 -33 -28 -55 -107 -89 -184 -207 -177
-274 l3 -34 234 -1 233 -1 -4 101 c-4 77 -10 111 -26 143 -25 49 -29 101 -7
109 8 3 19 22 26 41 20 62 7 112 -67 239 -91 159 -133 247 -179 378 -41 116
-75 166 -141 207 -19 11 -41 34 -49 50 -22 41 -78 278 -110 459 -22 129 -45
233 -72 331 -4 14 6 17 60 21 132 8 310 127 381 253 82 146 101 318 47 430
-27 58 -109 147 -159 174 -18 10 -22 20 -22 65 0 74 -29 122 -124 202 -99 84
-121 128 -113 221 4 40 3 63 -4 63 -5 0 -39 -28 -74 -62z m60 -30 c0 -96 34
-150 163 -256 57 -47 79 -98 67 -159 -10 -54 -37 -74 -88 -67 -179 28 -310
233 -254 399 17 50 84 145 102 145 6 0 10 -26 10 -62z m-2007 -278 c90 -25
161 -62 272 -141 227 -162 426 -245 970 -404 211 -61 318 -107 420 -176 95
-66 94 -65 81 -40 -14 26 -14 26 48 1 84 -33 206 -60 271 -60 52 0 68 5 114
34 72 46 121 98 154 165 23 49 27 67 26 141 -2 102 -22 154 -91 224 -34 36
-43 50 -34 59 27 27 156 -79 194 -161 29 -62 30 -210 3 -292 -68 -204 -228
-345 -405 -358 -100 -7 -113 -1 -141 58 -43 92 -46 67 -4 -40 12 -32 18 -85
21 -185 4 -118 2 -154 -16 -228 -36 -152 -82 -214 -256 -345 -114 -86 -218
-190 -272 -271 -21 -31 -51 -97 -68 -146 -45 -134 -53 -142 -195 -184 -117
-35 -203 -95 -271 -190 -22 -30 -52 -63 -67 -73 -29 -19 -87 -24 -97 -8 -15
25 -23 7 -12 -27 7 -21 11 -55 9 -77 -3 -38 -4 -38 -107 -87 -86 -40 -258
-109 -273 -109 -3 0 -2 30 2 67 7 67 47 170 70 179 7 3 68 -2 136 -11 69 -8
134 -15 145 -14 35 1 -77 28 -172 40 -51 7 -93 16 -93 19 0 4 22 28 50 54 31
29 59 47 77 48 15 1 35 2 43 4 8 1 20 2 25 3 6 1 17 16 23 35 18 48 67 88 173
142 101 50 168 106 206 172 49 84 27 205 -81 445 -73 160 -94 233 -102 345 -7
87 4 143 57 287 35 96 35 92 26 378 -1 34 1 76 5 92 7 28 6 28 -9 -5 -12 -26
-15 -56 -12 -120 9 -220 5 -247 -66 -430 -24 -60 -31 -196 -15 -284 13 -79 63
-218 116 -328 18 -40 34 -78 34 -84 0 -7 -21 -19 -47 -28 -55 -17 -529 -86
-596 -86 l-44 0 18 38 c21 43 38 118 64 295 21 141 16 299 -13 397 -39 132
-81 287 -93 348 -6 34 -14 61 -16 58 -9 -8 37 -243 68 -346 38 -128 47 -260
29 -422 -26 -247 -55 -345 -110 -373 -39 -20 -148 -41 -260 -50 -156 -12 -324
-37 -404 -61 -131 -39 -145 -57 -106 -133 27 -53 63 -87 165 -155 113 -75 160
-123 169 -171 7 -34 9 -36 24 -22 46 40 152 66 139 34 -20 -49 -91 -213 -95
-217 -2 -3 -14 8 -26 23 -37 46 -76 67 -126 67 -27 0 -58 8 -77 19 -17 11 -87
86 -154 168 -68 81 -135 157 -149 168 -69 54 -130 121 -141 152 -6 20 -9 56
-6 82 4 39 11 51 48 83 114 97 243 192 337 249 l103 62 103 5 c114 5 175 -9
241 -53 19 -14 35 -20 35 -15 0 18 -77 71 -124 85 -56 17 -169 19 -236 4 -128
-28 -152 -23 -233 44 -27 21 -51 37 -53 34 -12 -11 79 -96 114 -108 54 -17 58
-25 21 -45 -19 -9 -67 -42 -108 -72 l-75 -55 -19 24 c-29 36 -76 134 -97 203
-47 150 -63 257 -64 411 l-1 150 54 160 c29 88 78 225 109 305 90 238 92 244
92 255 -1 27 -194 -468 -250 -640 -42 -130 -42 -130 -37 -250 9 -211 67 -443
141 -563 l45 -72 -26 -24 c-15 -14 -40 -32 -57 -41 l-31 -16 -74 71 c-215 205
-410 300 -581 281 -41 -5 -77 -7 -79 -5 -2 2 6 25 17 52 40 93 63 195 67 302
l4 105 -10 -75 c-15 -108 -54 -262 -83 -325 -37 -81 -98 -141 -191 -187 -100
-50 -140 -87 -165 -156 -27 -70 -64 -119 -111 -143 -34 -17 -89 -26 -89 -15 0
2 17 42 39 88 26 57 50 94 77 117 l39 32 -30 -6 c-45 -10 -62 -31 -111 -132
l-44 -92 -31 11 c-46 16 -125 96 -150 152 -24 55 -22 77 18 176 18 46 27 91
31 153 4 73 7 87 22 87 9 0 25 9 35 20 10 11 27 20 37 20 11 0 33 13 49 29 33
33 37 71 15 125 -9 21 -10 38 -4 49 6 12 5 15 -5 12 -20 -8 -66 -85 -78 -130
-19 -69 -28 -85 -48 -85 -25 0 -39 25 -52 95 -13 73 1 124 56 198 26 35 46 75
50 98 l7 40 61 -7 c34 -4 74 -13 89 -20 15 -8 42 -14 60 -13 32 0 33 1 8 11
-14 6 -35 14 -47 19 l-23 8 24 36 c16 24 27 57 31 100 6 56 4 69 -14 101 -12
20 -21 37 -19 38 2 1 16 8 32 14 39 17 27 26 -19 13 -49 -13 -43 2 22 55 35
29 77 49 144 71 193 63 413 151 969 391 186 80 386 152 520 188 155 41 267 45
378 14z m-2355 -590 c59 -39 144 -70 215 -77 29 -3 55 -9 57 -13 2 -4 -8 -21
-23 -39 -24 -28 -35 -32 -93 -38 -48 -4 -80 -1 -117 11 -94 32 -177 141 -189
249 l-6 52 54 -56 c30 -31 76 -71 102 -89z m-249 -36 c86 -102 211 -154 371
-154 49 0 107 4 128 9 44 11 59 0 77 -54 9 -27 9 -47 0 -84 -17 -72 -39 -91
-105 -91 -86 0 -201 26 -266 61 -91 49 -190 146 -221 216 -28 62 -45 143 -31
143 5 0 26 -20 47 -46z m4581 -675 c25 -112 55 -247 66 -299 55 -253 75 -299
147 -345 60 -38 82 -72 121 -187 43 -126 76 -201 124 -278 94 -153 117 -197
123 -240 5 -40 3 -49 -26 -85 -27 -34 -31 -45 -26 -78 4 -22 15 -56 26 -76 11
-23 21 -71 26 -124 l7 -87 -218 0 -217 0 7 37 c15 80 80 173 120 173 27 0 110
-24 198 -57 38 -14 70 -23 73 -20 9 8 -107 57 -186 78 -41 11 -76 22 -79 24
-2 2 12 14 32 25 23 14 41 35 51 62 16 39 16 41 -8 72 -13 18 -40 84 -60 147
-57 183 -159 331 -306 444 -85 65 -270 164 -375 200 l-94 32 32 30 c18 17 68
56 112 88 213 156 278 282 279 542 1 72 2 130 4 129 1 -2 23 -95 47 -207z
m-4129 -23 c8 -43 -14 -90 -43 -94 -20 -3 -21 -1 -12 35 15 56 30 93 40 93 4
0 11 -15 15 -34z m1250 -637 l43 -42 -20 -26 c-40 -55 -33 -151 16 -209 30
-36 31 -49 5 -57 -11 -3 -37 -21 -59 -39 -21 -18 -65 -45 -97 -61 -41 -19 -86
-55 -145 -115 -79 -80 -121 -136 -218 -294 -37 -59 -72 -81 -114 -70 -30 7
-29 9 -32 -61 -1 -27 -10 -76 -19 -107 l-17 -58 -219 0 c-121 0 -220 3 -220 8
0 31 176 232 203 232 11 0 134 -82 201 -134 21 -16 37 -25 35 -19 -6 15 -85
81 -153 128 -50 34 -55 41 -41 51 9 7 36 16 58 19 23 4 61 16 84 27 34 17 42
27 48 56 11 61 31 86 156 204 139 131 239 254 263 324 9 27 24 61 34 76 30 47
155 208 161 208 3 0 24 -19 47 -41z m904 -594 c0 -3 18 -76 40 -164 22 -87 40
-168 40 -179 0 -20 -1 -20 -59 -2 -72 21 -169 65 -193 87 -16 14 -16 18 6 62
12 25 36 81 52 123 l29 78 43 0 c23 0 42 -2 42 -5z"/>
<path d="M2791 2824 c-25 -18 -164 -79 -221 -97 -43 -14 -130 -99 -130 -127 0
-28 3 -26 36 21 30 43 73 69 201 120 43 16 95 42 116 57 48 32 57 22 57 -60 0
-133 -96 -251 -222 -271 l-37 -6 33 47 c19 26 46 73 61 104 35 72 80 127 119
144 27 12 28 13 8 14 -37 0 -110 -76 -153 -161 -23 -46 -57 -94 -84 -120 -25
-23 -45 -45 -45 -49 0 -12 143 15 183 34 51 25 118 103 140 162 9 27 18 74 18
105 2 90 -27 120 -80 83z"/>
<path d="M2432 2800 c25 -16 49 -34 53 -39 3 -6 11 -11 17 -11 18 0 -25 41
-64 61 -56 28 -59 23 -6 -11z"/>
<path d="M2355 2580 c0 -34 1 -38 9 -21 5 13 5 29 0 42 -8 17 -9 13 -9 -21z"/>
<path d="M2105 2200 c4 -14 12 -50 18 -80 6 -30 13 -47 15 -36 6 30 -8 102
-24 122 -15 18 -15 18 -9 -6z"/>
<path d="M1911 1667 c-6 -8 -15 -36 -20 -62 -16 -84 14 -125 69 -95 32 17 44
120 17 147 -9 10 -11 0 -9 -45 3 -48 0 -61 -17 -76 -11 -10 -25 -15 -30 -11
-14 8 -14 85 -1 121 12 31 8 41 -9 21z"/>
</g>
</svg>
