<?xml version="1.0" standalone="no"?>
<!DOCTYPE svg PUBLIC "-//W3C//DTD SVG 20010904//EN"
 "http://www.w3.org/TR/2001/REC-SVG-20010904/DTD/svg10.dtd">
<svg version="1.0" xmlns="http://www.w3.org/2000/svg"
 width="626.000000pt" height="352.000000pt" viewBox="0 0 626.000000 352.000000"
 preserveAspectRatio="xMidYMid meet">

<g transform="translate(0.000000,352.000000) scale(0.100000,-0.100000)"
fill="#000000" stroke="none">
<path d="M3565 2080 c-228 -14 -441 -44 -680 -96 -204 -44 -418 -108 -1020
-304 -204 -66 -426 -123 -590 -151 -154 -27 -450 -32 -575 -11 -105 19 -280
66 -374 101 -44 17 -81 29 -83 27 -6 -6 138 -67 227 -96 153 -52 270 -71 465
-77 348 -11 540 28 1270 256 738 230 1158 301 1705 288 400 -10 696 -60 1050
-177 239 -79 424 -164 643 -295 128 -78 94 -46 -58 54 -460 302 -1032 467
-1680 485 -93 2 -228 1 -300 -4z"/>
</g>
</svg>
