<?xml version="1.0" standalone="no"?>
<!DOCTYPE svg PUBLIC "-//W3C//DTD SVG 20010904//EN"
 "http://www.w3.org/TR/2001/REC-SVG-20010904/DTD/svg10.dtd">
<svg version="1.0" xmlns="http://www.w3.org/2000/svg"
 width="259.000000pt" height="194.000000pt" viewBox="0 0 259.000000 194.000000"
 preserveAspectRatio="xMidYMid meet">

<g transform="translate(0.000000,194.000000) scale(0.100000,-0.100000)"
fill="#000000" stroke="none">
<path d="M1886 1300 c-65 -20 -96 -79 -58 -113 23 -21 36 -21 51 -3 10 12 8
17 -10 27 l-23 12 24 19 c34 27 97 19 127 -17 28 -32 29 -49 3 -75 -29 -29
-107 -26 -195 6 -421 156 -501 164 -709 72 -247 -109 -243 -108 -346 -108
-108 0 -179 16 -265 60 -33 16 -51 23 -40 14 44 -35 149 -76 232 -91 119 -21
183 -10 364 62 163 65 227 85 282 85 74 0 193 -33 371 -102 212 -82 274 -97
340 -78 70 19 96 49 96 108 0 40 -5 53 -29 76 -48 46 -145 67 -215 46z"/>
</g>
</svg>
