<?xml version="1.0" standalone="no"?>
<!DOCTYPE svg PUBLIC "-//W3C//DTD SVG 20010904//EN"
 "http://www.w3.org/TR/2001/REC-SVG-20010904/DTD/svg10.dtd">
<svg version="1.0" xmlns="http://www.w3.org/2000/svg"
 width="860.000000pt" height="181.000000pt" viewBox="0 0 860.000000 181.000000"
 preserveAspectRatio="xMidYMid meet">

<g transform="translate(0.000000,181.000000) scale(0.100000,-0.100000)"
fill="#000000" stroke="none">
<path d="M8070 938 c-1295 -434 -2535 -581 -3780 -448 -223 24 -611 88 -826
135 -87 19 -159 33 -161 32 -3 -4 93 -31 447 -123 134 -35 247 -60 250 -55 5
8 154 -3 182 -14 9 -3 18 -14 21 -24 5 -22 46 -31 133 -31 59 0 64 2 64 21 0
19 4 21 38 15 20 -3 65 -6 100 -6 48 0 62 -3 62 -15 0 -12 -18 -15 -99 -15
-74 0 -100 -3 -104 -14 -4 -10 19 -18 94 -31 91 -16 123 -15 106 1 -3 4 -21
10 -39 14 l-33 8 32 1 c17 1 35 6 38 11 7 12 202 14 207 2 2 -5 47 -12 101
-15 82 -5 97 -4 97 8 0 12 -19 15 -100 15 -55 0 -100 4 -100 9 0 5 45 10 100
10 55 1 100 -2 100 -7 0 -5 133 -9 296 -9 226 1 297 -2 303 -12 6 -9 32 -11
102 -7 52 4 140 9 197 12 87 4 102 8 102 22 0 12 8 17 28 17 15 0 60 4 100 8
62 6 72 5 72 -9 0 -14 9 -15 63 -10 114 12 137 17 137 31 0 13 12 17 108 30
20 3 49 8 65 11 21 4 27 2 27 -11 0 -14 7 -16 38 -11 20 3 65 8 99 11 46 5 62
11 66 24 3 13 23 21 78 30 41 7 84 15 97 18 18 4 22 1 22 -17 0 -16 5 -20 18
-16 9 3 54 13 100 22 66 14 82 21 82 36 0 16 10 18 100 18 91 0 100 2 100 19
0 15 15 21 86 35 47 10 92 20 100 23 9 3 14 -2 14 -15 0 -18 4 -20 28 -12 15
4 60 13 100 20 66 11 72 14 72 36 0 13 3 24 8 24 10 0 153 29 175 36 12 4 17
0 17 -16 0 -18 4 -20 23 -14 12 4 33 8 47 9 89 6 165 45 113 58 -10 2 10 2 45
-1 l62 -5 0 102 c0 55 -3 100 -7 99 -5 -1 -100 -32 -213 -70z m-2270 -518 c0
-6 -40 -10 -100 -10 -60 0 -100 4 -100 10 0 6 40 10 100 10 60 0 100 -4 100
-10z"/>
<path d="M8165 694 c-16 -7 -60 -23 -97 -35 -38 -13 -68 -28 -68 -36 0 -9 -14
-13 -45 -13 -25 0 -62 -7 -82 -15 -19 -8 -44 -15 -54 -15 -12 0 -19 -7 -19
-18 0 -15 -19 -23 -100 -44 -59 -15 -101 -21 -103 -15 -4 13 -197 -32 -197
-47 0 -16 -160 -48 -207 -42 -29 4 -32 3 -13 -3 23 -7 22 -8 -15 -15 -22 -4
-67 -13 -100 -20 -51 -11 -61 -11 -63 1 -2 8 -11 12 -20 9 -9 -3 -53 -12 -96
-21 -44 -8 -82 -19 -85 -23 -10 -15 -193 -35 -201 -22 -7 12 -191 -7 -200 -20
-3 -4 -49 -11 -102 -15 -75 -5 -98 -4 -98 6 0 15 -193 5 -198 -11 -5 -13 -121
-13 -276 0 -88 7 -122 7 -127 -1 -9 -15 -188 -7 -198 9 -10 17 -191 28 -201
12 -10 -17 -200 -3 -200 15 0 8 -27 15 -82 19 -46 4 -91 9 -100 12 -12 3 -18
0 -18 -9 0 -12 -10 -14 -42 -11 -105 9 102 -27 287 -50 417 -53 541 -61 1005
-60 467 0 615 9 970 60 391 56 834 163 1210 292 l55 19 3 56 3 56 -42 -14
c-51 -18 -47 -19 -51 3 -3 17 -6 17 -33 6z"/>
<path d="M3268 663 c7 -3 16 -2 19 1 4 3 -2 6 -13 5 -11 0 -14 -3 -6 -6z"/>
<path d="M5200 393 c0 -15 9 -18 53 -17 140 3 147 4 147 19 0 12 -18 15 -100
15 -89 0 -100 -2 -100 -17z"/>
<path d="M4673 333 c9 -2 23 -2 30 0 6 3 -1 5 -18 5 -16 0 -22 -2 -12 -5z"/>
</g>
</svg>
